<svg style="display:none"
	xmlns="http://www.w3.org/2000/svg"
	xmlns:xlink="http://www.w3.org/1999/xlink" version="1.1">
	<!-- Close -->
	<symbol id="close" viewBox="0 0 12 12" fill="none"
		xmlns="http://www.w3.org/2000/svg">
		<path fill-rule="evenodd" clip-rule="evenodd" d="M0.410765 0.410704C0.736202 0.0852667 1.26384 0.0852667 1.58928 0.410704L6.00002 4.82145L10.4108 0.410704C10.7362 0.0852673 11.2638 0.0852673 11.5893 0.410704C11.9147 0.736141 11.9147 1.26378 11.5893 1.58922L7.17853 5.99996L11.5893 10.4107C11.9147 10.7361 11.9147 11.2638 11.5893 11.5892C11.2638 11.9147 10.7362 11.9147 10.4108 11.5892L6.00002 7.17847L1.58928 11.5892C1.26384 11.9147 0.736202 11.9147 0.410765 11.5892C0.0853278 11.2638 0.0853278 10.7361 0.410765 10.4107L4.82151 5.99996L0.410765 1.58921C0.0853278 1.26378 0.0853278 0.736141 0.410765 0.410704Z" fill="currentColor"/>
	</symbol>

	<!-- Close Small -->
	<symbol id="close-small" viewBox="0 0 10 9" fill="none"
		xmlns="http://www.w3.org/2000/svg">
		<path d="M9 0.689941L1 8.30994M1 0.689941L9 8.30994" stroke="currentColor" stroke-width="1.27" stroke-linecap="round" stroke-linejoin="round"/>
	</symbol>

	<!-- Chevron Right -->
	<symbol id="chevron-right" viewBox="0 0 24 24" fill="none"
		xmlns="http://www.w3.org/2000/svg">
		<g id="icon/chevron-right">
			<path id="Icon (Stroke)" fill-rule="evenodd" clip-rule="evenodd" d="M9.00015 4.58594L15.7073 11.293C16.0978 11.6836 16.0978 12.3167 15.7073 12.7073L9.00015 19.4144L7.58594 18.0002L13.5859 12.0002L7.58594 6.00015L9.00015 4.58594Z" fill="currentColor"/>
		</g>
	</symbol>

	<!-- Chevron Up -->
	<symbol id="chevron-up" viewBox="0 0 12 8" fill="none"
		xmlns="http://www.w3.org/2000/svg">
		<path d="M11 6.5L6 1.5L1 6.5" stroke="currentColor" stroke-width="2" stroke-linecap="round" stroke-linejoin="round"/>
	</symbol>

	<!-- Arrow Down 2 -->
	<symbol id="arrow-down-2" viewBox="0 0 24 24" fill="none"
		xmlns="http://www.w3.org/2000/svg">
		<g id="icon/chevron-down">
			<path id="Icon (Stroke)" fill-rule="evenodd" clip-rule="evenodd" d="M6.00015 7.58594L12.0002 13.5859L18.0002 7.58594L19.4144 9.00015L12.7073 15.7073C12.3167 16.0978 11.6836 16.0978 11.293 15.7073L4.58594 9.00015L6.00015 7.58594Z" fill="currentColor"/>
		</g>
	</symbol>

	<!-- Arrow Up 2 -->
	<symbol id="arrow-up-2" viewBox="0 0 24 24" fill="none"
		xmlns="http://www.w3.org/2000/svg">
		<g id="icon/chevron-up">
			<path id="Icon (Stroke)" fill-rule="evenodd" clip-rule="evenodd" d="M11.293 8.29289C11.6836 7.90237 12.3167 7.90237 12.7073 8.29289L19.4144 15L18.0002 16.4142L12.0002 10.4142L6.00015 16.4142L4.58594 15L11.293 8.29289Z" fill="currentColor"/>
		</g>
	</symbol>

	<!-- Globe Outline  -->
	<symbol id="globe-outline" viewBox="0 0 20 20" fill="none"
		xmlns="http://www.w3.org/2000/svg">
		<path d="M10 2.36206C7.99754 2.36206 6.1133 3.14531 4.69458 4.57142L4.66502 4.60837C3.26847 6.0197 2.5 7.88915 2.5 9.86206C2.5 14 5.86207 17.3621 10 17.3621C12.0099 17.3621 13.8941 16.5788 15.3128 15.1527C15.335 15.1305 15.3498 15.1158 15.3719 15.0862C16.7463 13.6749 17.5 11.8202 17.5 9.86206C17.5 5.72413 14.1379 2.36206 10 2.36206ZM13.569 9.38177H10.4803V6.27093C11.3227 6.24876 12.1355 6.16748 12.8892 6.02709C13.2882 7.00984 13.5172 8.16994 13.569 9.38915V9.38177ZM13.4434 4.9261C13.266 4.57881 13.0665 4.26846 12.8596 3.99507C13.2882 4.20196 13.6946 4.46058 14.064 4.75615C13.8793 4.81526 13.6724 4.87438 13.4434 4.9261ZM10.4803 5.31034V3.38177C11.2192 3.56649 11.9138 4.17979 12.4606 5.12561C11.8473 5.22906 11.1823 5.28817 10.4803 5.31034ZM13.8498 13.9187C14.2488 12.8621 14.4852 11.6355 14.5296 10.3424H16.5099C16.4064 11.7832 15.8153 13.1576 14.8473 14.2364C14.5296 14.1182 14.1897 14.0074 13.8424 13.9187H13.8498ZM10.4803 10.3497H13.569C13.5172 11.569 13.2882 12.7217 12.8892 13.7118C12.1281 13.5714 11.3227 13.4901 10.4803 13.468V10.3497ZM14.064 14.9828C13.6872 15.2783 13.2808 15.5369 12.8522 15.7438C13.0665 15.463 13.266 15.1453 13.4434 14.8054C13.665 14.8645 13.8719 14.9162 14.064 14.9828ZM10.4803 16.3497V14.4286C11.1749 14.4507 11.8399 14.5098 12.4606 14.6059C11.9064 15.5591 11.2118 16.165 10.4803 16.3497ZM14.5296 9.38915C14.4778 8.09605 14.2488 6.86206 13.8498 5.8128C14.197 5.71674 14.5369 5.61329 14.8547 5.49507C15.8227 6.57388 16.4138 7.94827 16.5172 9.38915H14.5296ZM6.15025 13.9261C5.78079 14.0222 5.44828 14.1256 5.14532 14.2438C4.17734 13.165 3.58621 11.7906 3.48276 10.3497H5.47044C5.51478 11.6428 5.75123 12.8768 6.15025 13.9261ZM3.48276 9.38915C3.58621 7.94827 4.17734 6.57388 5.14532 5.49507C5.44828 5.61329 5.78079 5.71674 6.15025 5.8128C5.75123 6.86206 5.51478 8.09605 5.47044 9.38915H3.48276ZM6.43103 10.3497H9.5197V13.4606C8.67734 13.4828 7.86453 13.564 7.11084 13.7044C6.71182 12.7217 6.48276 11.5616 6.43103 10.3424V10.3497ZM6.55665 14.8054C6.73399 15.1453 6.9335 15.463 7.14039 15.7364C6.71182 15.5295 6.30542 15.2709 5.93596 14.9754C6.12069 14.9162 6.32759 14.8571 6.55665 14.8054ZM9.5197 14.4212V16.3497C8.78079 16.165 8.08621 15.5517 7.53941 14.6059C8.15271 14.5025 8.81773 14.4433 9.5197 14.4212ZM9.5197 9.38177H6.43103C6.48276 8.16994 6.71182 7.00984 7.11084 6.0197C7.86453 6.16009 8.67734 6.24137 9.5197 6.26354V9.38177ZM5.93596 4.75615C6.31281 4.46058 6.71182 4.20196 7.14778 3.99507C6.9335 4.27585 6.74138 4.5862 6.55665 4.93349C6.33498 4.87438 6.12808 4.82265 5.93596 4.76354V4.75615ZM9.5197 3.38915V5.31034C8.82512 5.28817 8.1601 5.22906 7.53941 5.133C8.08621 4.18718 8.78079 3.57388 9.5197 3.38915Z" fill="currentColor"/>
	</symbol>

	<!-- Globe -->
	<symbol id="globe" viewBox="0 0 24 24" fill="none"
		xmlns="http://www.w3.org/2000/svg">
		<g id="icon/globe-02">
			<path id="Icon (Stroke)" fill-rule="evenodd" clip-rule="evenodd" d="M3.14348 9.89998C2.98424 10.5741 2.89998 11.2772 2.89998 12C2.89998 12.7228 2.98424 13.4258 3.14348 14.1H7.27819C7.17463 13.4141 7.11476 12.719 7.10017 12.0187C7.09991 12.0062 7.09991 11.9937 7.10017 11.9812C7.11476 11.281 7.17463 10.5859 7.27819 9.89998H3.14348ZM1.59999 8.72675C1.27513 9.75996 1.09998 10.8595 1.09998 12C1.09998 13.1404 1.27512 14.2399 1.59998 15.2731V15.9H1.81842C3.38744 19.9936 7.3543 22.9 12 22.9C16.6457 22.9 20.6125 19.9936 22.1815 15.9H22.4V15.2731C22.7248 14.2399 22.9 13.1404 22.9 12C22.9 10.8596 22.7248 9.76005 22.4 8.72687V8.09998H22.1815C20.6125 4.00632 16.6456 1.09998 12 1.09998C7.3543 1.09998 3.38744 4.00632 1.81842 8.09998H1.59999V8.72675ZM3.7757 8.09998H7.65557C8.13321 6.32922 8.90928 4.64804 9.954 3.13089C7.21813 3.75945 4.95316 5.62135 3.7757 8.09998ZM12 3.38861C10.8854 4.79845 10.0501 6.39771 9.52846 8.09998H14.4715C13.9499 6.39771 13.1145 4.79845 12 3.38861ZM14.8988 9.89998H9.1012C8.98355 10.5905 8.91585 11.2922 8.90018 12C8.91585 12.7077 8.98355 13.4095 9.1012 14.1H14.8988C15.0164 13.4095 15.0841 12.7077 15.0998 12C15.0841 11.2922 15.0164 10.5905 14.8988 9.89998ZM16.7218 14.1C16.8253 13.4141 16.8852 12.719 16.8998 12.0187C16.9 12.0062 16.9 11.9937 16.8998 11.9812C16.8852 11.281 16.8253 10.5859 16.7218 9.89998H20.8565C21.0157 10.5741 21.1 11.2772 21.1 12C21.1 12.7228 21.0157 13.4258 20.8565 14.1H16.7218ZM14.4715 15.9H9.52846C10.0501 17.6022 10.8854 19.2015 12 20.6113C13.1145 19.2015 13.9499 17.6022 14.4715 15.9ZM9.954 20.8691C8.90928 19.3519 8.13321 17.6707 7.65557 15.9H3.7757C4.95316 18.3786 7.21813 20.2405 9.954 20.8691ZM14.046 20.8691C15.0907 19.3519 15.8667 17.6707 16.3444 15.9H20.2243C19.0468 18.3786 16.7818 20.2405 14.046 20.8691ZM20.2243 8.09998H16.3444C15.8667 6.32922 15.0907 4.64804 14.0459 3.13089C16.7818 3.75945 19.0468 5.62135 20.2243 8.09998Z" fill="currentColor"/>
		</g>
	</symbol>

	<!-- Seller Search -->
	<symbol id="seller-search" viewBox="0 0 24 24" fill="none"
		xmlns="http://www.w3.org/2000/svg">
		<path fill-rule="evenodd" clip-rule="evenodd" d="M11 4C7.13401 4 4 7.13401 4 11C4 14.866 7.13401 18 11 18C12.8001 18 14.4415 17.3205 15.6817 16.2041L16.2041 15.6817C17.3205 14.4415 18 12.8001 18 11C18 7.13401 14.866 4 11 4ZM18.0319 16.6177C19.2635 15.078 20 13.125 20 11C20 6.02944 15.9706 2 11 2C6.02944 2 2 6.02944 2 11C2 15.9706 6.02944 20 11 20C13.125 20 15.078 19.2635 16.6177 18.0319L21 22.4142L22.4142 21L18.0319 16.6177Z" fill="currentColor"/>
	</symbol>

	<!-- Menu -->
	<symbol id="menu" viewBox="0 0 18 12" fill="none"
		xmlns="http://www.w3.org/2000/svg">
		<path fill-rule="evenodd" clip-rule="evenodd" d="M0 0.75C0 0.335786 0.335786 0 0.75 0H17.25C17.6642 0 18 0.335786 18 0.75C18 1.16421 17.6642 1.5 17.25 1.5H0.75C0.335786 1.5 0 1.16421 0 0.75ZM0 6C0 5.58579 0.335786 5.25 0.75 5.25H17.25C17.6642 5.25 18 5.58579 18 6C18 6.41421 17.6642 6.75 17.25 6.75H0.75C0.335786 6.75 0 6.41421 0 6ZM0 11.25C0 10.8358 0.335786 10.5 0.75 10.5H17.25C17.6642 10.5 18 10.8358 18 11.25C18 11.6642 17.6642 12 17.25 12H0.75C0.335786 12 0 11.6642 0 11.25Z" fill="currentColor"/>
	</symbol>

	<!-- Profile Icon -->
	<symbol id="profile-icon" viewBox="0 0 24 24" fill="none"
		xmlns="http://www.w3.org/2000/svg">
		<g id="icon/user-circle">
			<path id="Icon (Stroke)" fill-rule="evenodd" clip-rule="evenodd" d="M12 2.89998C6.97418 2.89998 2.89998 6.97418 2.89998 12C2.89998 14.2893 3.74533 16.3811 5.1409 17.9804C6.0373 16.8363 7.43203 16.1 8.99998 16.1H15C16.5679 16.1 17.9627 16.8363 18.859 17.9804C20.2546 16.3811 21.1 14.2893 21.1 12C21.1 6.97418 17.0258 2.89998 12 2.89998ZM19.7552 19.6594C21.6996 17.6908 22.9 14.9856 22.9 12C22.9 5.98007 18.0199 1.09998 12 1.09998C5.98007 1.09998 1.09998 5.98007 1.09998 12C1.09998 14.9856 2.30032 17.6908 4.24475 19.6594L4.13617 19.9152L4.82929 20.2094C6.74585 21.8848 9.25436 22.9 12 22.9C14.7456 22.9 17.2541 21.8848 19.1707 20.2094L19.8638 19.9152L19.7552 19.6594ZM17.539 19.2206C16.9776 18.4211 16.049 17.9 15 17.9H8.99998C7.95098 17.9 7.02233 18.4211 6.46095 19.2206C7.99516 20.3993 9.91574 21.1 12 21.1C14.0842 21.1 16.0048 20.3993 17.539 19.2206ZM12 6.39998C10.2879 6.39998 8.89998 7.78789 8.89998 9.49998C8.89998 11.2121 10.2879 12.6 12 12.6C13.7121 12.6 15.1 11.2121 15.1 9.49998C15.1 7.78789 13.7121 6.39998 12 6.39998ZM7.09998 9.49998C7.09998 6.79378 9.29378 4.59998 12 4.59998C14.7062 4.59998 16.9 6.79378 16.9 9.49998C16.9 12.2062 14.7062 14.4 12 14.4C9.29378 14.4 7.09998 12.2062 7.09998 9.49998Z" fill="currentColor"/>
		</g>
	</symbol>

	<!-- Right Arrow Small -->
	<symbol id="right-arrow-small" viewBox="0 0 13 12" fill="none"
		xmlns="http://www.w3.org/2000/svg">
		<path fill-rule="evenodd" clip-rule="evenodd" d="M7.66669 0.484863L12.7576 5.57579C12.9919 5.81011 12.9919 6.19001 12.7576 6.42432L7.66669 11.5153L6.81816 10.6667L10.8848 6.60006H0.400024V5.40006H10.8848L6.81816 1.33339L7.66669 0.484863Z" fill="currentColor"/>
	</symbol>

	<!-- Arrow Up -->
	<symbol id="arrow-up" viewBox="0 0 24 24" fill="none"
		xmlns="http://www.w3.org/2000/svg">
		<g id="icon/arrow-up">
			<path id="Icon (Stroke)" fill-rule="evenodd" clip-rule="evenodd" d="M12.6366 4.3637C12.2851 4.01223 11.7152 4.01223 11.3638 4.3637L3.72737 12.0001L5.00016 13.2729L11.1002 7.17289L11.1002 19.9001H12.9002L12.9002 7.17289L19.0002 13.2729L20.2729 12.0001L12.6366 4.3637Z" fill="currentColor"/>
		</g>
	</symbol>

	<!-- Search MD -->
	<symbol id="search-md" viewBox="0 0 16 16" fill="none"
		xmlns="http://www.w3.org/2000/svg">
		<path fill-rule="evenodd" clip-rule="evenodd" d="M7.33325 2.66659C4.75592 2.66659 2.66659 4.75592 2.66659 7.33325C2.66659 9.91058 4.75592 11.9999 7.33325 11.9999C8.53331 11.9999 9.62757 11.5469 10.4544 10.8027L10.8027 10.4544C11.5469 9.62757 11.9999 8.53331 11.9999 7.33325C11.9999 4.75592 9.91058 2.66659 7.33325 2.66659ZM12.0212 11.0784C12.8423 10.0519 13.3333 8.74993 13.3333 7.33325C13.3333 4.01954 10.647 1.33325 7.33325 1.33325C4.01954 1.33325 1.33325 4.01954 1.33325 7.33325C1.33325 10.647 4.01954 13.3333 7.33325 13.3333C8.74993 13.3333 10.0519 12.8423 11.0784 12.0212L13.9999 14.9427L14.9427 13.9999L12.0212 11.0784Z" fill="currentColor"/>
	</symbol>

	<!-- Shopping Cart -->
	<symbol id="shopping-cart" viewBox="0 0 32 32" fill="none"
		xmlns="http://www.w3.org/2000/svg">
		<g id="icon/shopping-cart">
			<path id="Icon (Stroke)" fill-rule="evenodd" clip-rule="evenodd" d="M2.66683 5.33331H8.27946L9.67951 9.33331H30.9014L25.7586 21.3333H11.0544L6.38753 7.99998H1.3335L2.66683 5.33331ZM10.6129 12L12.9463 18.6666H24.0002L26.8573 12H10.6129ZM12.1551 24H25.3335L24.0002 26.6666H13.4884L12.1551 24Z" fill="currentColor"/>
		</g>
	</symbol>

	<!-- Trend Up -->
	<symbol id="trend-up" viewBox="0 0 16 17" fill="none"
		xmlns="http://www.w3.org/2000/svg">
		<path d="M14.6666 5.32495L9.42083 10.3215C9.15682 10.573 9.02482 10.6987 8.8726 10.7458C8.7387 10.7873 8.59447 10.7873 8.46057 10.7458C8.30836 10.6987 8.17635 10.573 7.91234 10.3215L6.0875 8.58337C5.82349 8.3319 5.69148 8.20617 5.53926 8.15906C5.40537 8.11762 5.26114 8.11762 5.12724 8.15906C4.97502 8.20617 4.84302 8.3319 4.579 8.58337L1.33325 11.675M14.6666 5.32495H9.99992M14.6666 5.32495V9.76995" stroke="currentColor" stroke-width="1.33333" stroke-linecap="round" stroke-linejoin="round"/>
	</symbol>

	<!-- Share -->
	<symbol id="share" viewBox="0 0 16 16" fill="none"
		xmlns="http://www.w3.org/2000/svg">
		<path fill-rule="evenodd" clip-rule="evenodd" d="M14.6679 3.76159C14.6679 2.42572 13.5481 1.34277 12.1668 1.34277C10.7855 1.34277 9.66575 2.42572 9.66575 3.76159C9.66575 4.15227 9.76152 4.52131 9.9316 4.84797L5.93182 7.25156C5.48279 6.6055 4.72003 6.18041 3.8546 6.18041C2.47329 6.18041 1.35352 7.26335 1.35352 8.59923C1.35352 9.93511 2.47329 11.0181 3.8546 11.0181C4.72487 11.0181 5.49132 10.5882 5.93933 9.93604L9.72779 12.2127C9.68719 12.3856 9.66575 12.5656 9.66575 12.7505C9.66575 14.0863 10.7855 15.1693 12.1668 15.1693C13.5481 15.1693 14.6679 14.0863 14.6679 12.7505C14.6679 11.4146 13.5481 10.3316 12.1668 10.3316C11.3166 10.3316 10.5654 10.742 10.1135 11.369L6.30607 9.08103C6.33861 8.92533 6.35568 8.76421 6.35568 8.59923C6.35568 8.42944 6.33759 8.26372 6.30317 8.1038L10.5115 5.57488C10.9525 5.95172 11.5321 6.18041 12.1668 6.18041C13.5481 6.18041 14.6679 5.09747 14.6679 3.76159ZM10.5875 3.76159C10.5875 2.94182 11.2878 2.26454 12.1668 2.26454C13.0458 2.26454 13.7462 2.94182 13.7462 3.76159C13.7462 4.58137 13.0458 5.25865 12.1668 5.25865C11.2878 5.25865 10.5875 4.58137 10.5875 3.76159ZM10.5875 12.7505C10.5875 11.9307 11.2878 11.2534 12.1668 11.2534C13.0458 11.2534 13.7462 11.9307 13.7462 12.7505C13.7462 13.5702 13.0458 14.2475 12.1668 14.2475C11.2878 14.2475 10.5875 13.5702 10.5875 12.7505ZM3.8546 7.10218C2.9756 7.10218 2.27528 7.77946 2.27528 8.59923C2.27528 9.41901 2.9756 10.0963 3.8546 10.0963C4.7336 10.0963 5.43392 9.41901 5.43392 8.59923C5.43392 7.77946 4.7336 7.10218 3.8546 7.10218Z" fill="currentColor"/>
	</symbol>

	<!-- Facebook -->
	<symbol id="facebook" viewBox="0 0 9 16" fill="none"
		xmlns="http://www.w3.org/2000/svg">
		<path d="M7.84028 8.8313L8.25688 6.11665H5.65211V4.35503C5.65211 3.61235 6.01598 2.88843 7.18257 2.88843H8.36674V0.577197C8.36674 0.577197 7.29214 0.393799 6.26471 0.393799C4.1196 0.393799 2.71746 1.69399 2.71746 4.04771V6.11665H0.333008V8.8313H2.71746V15.3938H5.65211V8.8313H7.84028Z" fill="currentColor"/>
	</symbol>

	<!-- X -->
	<symbol id="X" viewBox="0 0 18 17" fill="none"
		xmlns="http://www.w3.org/2000/svg">
		<path fill-rule="evenodd" clip-rule="evenodd" d="M5.62642 0.689453H0.00683594L6.66972 9.44429L0.433063 16.7885H3.31458L8.03158 11.2339L12.2201 16.7375H17.8397L10.9832 7.72823L10.9953 7.74377L16.8988 0.791726H14.0173L9.63325 5.95441L5.62642 0.689453ZM3.10875 2.22271H4.8582L14.7377 15.2041H12.9883L3.10875 2.22271Z" fill="currentColor"/>
	</symbol>

	<!-- Pinterest -->

	<symbol id="pinterest" viewBox="0 0 511.998 511.998" fill="none"
		xmlns="http://www.w3.org/2000/svg">
		<path fill="currentColor" d="M405.017,52.467C369.774,18.634,321.001,0,267.684,0C186.24,0,136.148,33.385,108.468,61.39
	c-34.114,34.513-53.675,80.34-53.675,125.732c0,56.993,23.839,100.737,63.76,117.011c2.68,1.098,5.377,1.651,8.021,1.651
	c8.422,0,15.095-5.511,17.407-14.35c1.348-5.071,4.47-17.582,5.828-23.013c2.906-10.725,0.558-15.884-5.78-23.353
	c-11.546-13.662-16.923-29.817-16.923-50.842c0-62.451,46.502-128.823,132.689-128.823c68.386,0,110.866,38.868,110.866,101.434
	c0,39.482-8.504,76.046-23.951,102.961c-10.734,18.702-29.609,40.995-58.585,40.995c-12.53,0-23.786-5.147-30.888-14.121
	c-6.709-8.483-8.921-19.441-6.222-30.862c3.048-12.904,7.205-26.364,11.228-39.376c7.337-23.766,14.273-46.213,14.273-64.122
	c0-30.632-18.832-51.215-46.857-51.215c-35.616,0-63.519,36.174-63.519,82.354c0,22.648,6.019,39.588,8.744,46.092
	c-4.487,19.01-31.153,132.03-36.211,153.342c-2.925,12.441-20.543,110.705,8.618,118.54c32.764,8.803,62.051-86.899,65.032-97.713
	c2.416-8.795,10.869-42.052,16.049-62.495c15.817,15.235,41.284,25.535,66.064,25.535c46.715,0,88.727-21.022,118.298-59.189
	c28.679-37.02,44.474-88.618,44.474-145.282C457.206,127.983,438.182,84.311,405.017,52.467z"/>
	</symbol>

	<!-- Link Copy -->
	<symbol id="link-copy" viewBox="0 0 24 24" fill="none"
		xmlns="http://www.w3.org/2000/svg">
		<path fill-rule="evenodd" clip-rule="evenodd" d="M13.19 8.688a4.5 4.5 0 0 1 1.242 7.244l-4.5 4.5a4.5 4.5 0 0 1-6.364-6.364l1.757-1.757m13.35-.622 1.757-1.757a4.5 4.5 0 0 0-6.364-6.364l-4.5 4.5a4.5 4.5 0 0 0 1.242 7.244" fill="currentColor"/>
	</symbol>

	<!-- Shipping -->
	<symbol id="shipping" viewBox="0 0 20 20" fill="none"
		xmlns="http://www.w3.org/2000/svg">
		<g clip-path="url(#clip0_15649_15663)">
			<path fill-rule="evenodd" clip-rule="evenodd" d="M9.54774 1.72658L2.9933 5.36706L10.0952 9.05781L17.1151 5.3161L10.6524 1.72658C10.4835 1.63275 10.2934 1.5835 10.1001 1.5835C9.90683 1.5835 9.7167 1.63275 9.54774 1.72658ZM2.35547 13.6086V6.91388L9.26675 10.5056V18.1176L2.94081 14.6022C2.76353 14.5037 2.61579 14.3597 2.51288 14.185C2.41 14.0103 2.35566 13.8113 2.35547 13.6086ZM11.3809 19.585C11.2376 19.6646 11.0878 19.7303 10.9334 19.7817V19.7994H10.8783C10.6272 19.8769 10.3649 19.9168 10.1001 19.9168C9.83522 19.9168 9.57292 19.8769 9.3218 19.7994H9.26675V19.7817C9.11248 19.7304 8.96271 19.6646 8.81949 19.5851L2.21256 15.9135C1.80164 15.6853 1.45898 15.3513 1.22041 14.9462C0.981811 14.5412 0.855815 14.0797 0.855469 13.6095L0.855469 5.83547C0.855462 5.53351 0.936173 5.23701 1.08925 4.97673C1.24232 4.71644 1.4622 4.5018 1.72611 4.35505L8.81949 0.415221C9.21125 0.197661 9.65198 0.0834961 10.1001 0.0834961C10.5482 0.0834961 10.9889 0.197661 11.3807 0.415221L18.4737 4.35486C18.7376 4.50162 18.9579 4.71644 19.1109 4.97673C19.264 5.23701 19.3447 5.53348 19.3447 5.83544V13.608C19.3446 14.0784 19.2187 14.5403 18.9801 14.9457C18.7415 15.351 18.3989 15.6851 17.9878 15.9134L11.3809 19.585ZM10.9334 10.4997V18.1176L17.2592 14.6023C17.4365 14.5038 17.5845 14.3596 17.6874 14.1847C17.7903 14.0099 17.8446 13.8108 17.8447 13.608V6.81587L10.9334 10.4997ZM7.56882 11.5652L3.28145 9.1757L3.3034 10.6315L7.59077 13.021L7.56882 11.5652Z" fill="currentColor"/>
		</g>
		<defs>
			<clipPath id="clip0_15649_15663">
				<rect width="20" height="20" fill="white"/>
			</clipPath>
		</defs>
	</symbol>

	<!-- Sold By -->
	<symbol id="sold-by" viewBox="0 0 20 20" fill="none"
		xmlns="http://www.w3.org/2000/svg">
		<path fill-rule="evenodd" clip-rule="evenodd" d="M9.76186 0.907269C9.91995 0.884426 10.0805 0.884426 10.2386 0.907269C10.4208 0.933597 10.5903 0.997643 10.7249 1.0485C10.7372 1.05315 10.7493 1.0577 10.761 1.06209L15.2292 2.73765C15.2657 2.75137 15.302 2.76492 15.338 2.77836C15.8528 2.97057 16.305 3.13937 16.6531 3.44622C16.9577 3.71465 17.1924 4.05323 17.3368 4.43268C17.5018 4.86644 17.5011 5.34904 17.5003 5.89857C17.5003 5.93699 17.5002 5.97573 17.5002 6.0148V10.0001C17.5002 12.3557 16.2191 14.3195 14.8343 15.7621C13.4403 17.2145 11.8452 18.2403 11.0018 18.7323C10.9907 18.7388 10.9793 18.7455 10.9677 18.7523C10.8137 18.8427 10.614 18.96 10.3497 19.0167C10.1335 19.0631 9.86697 19.0631 9.65075 19.0167C9.38647 18.96 9.18669 18.8427 9.03278 18.7523C9.02114 18.7455 9.00976 18.7388 8.99864 18.7323C8.15522 18.2403 6.56019 17.2145 5.1661 15.7621C3.7813 14.3195 2.50022 12.3557 2.50022 10.0001V6.0148C2.50022 5.97573 2.50016 5.93699 2.50011 5.89858C2.49931 5.34904 2.49861 4.86644 2.66367 4.43268C2.80806 4.05323 3.0427 3.71465 3.34729 3.44622C3.69548 3.13936 4.1476 2.97057 4.66242 2.77836C4.69841 2.76492 4.7347 2.75137 4.77129 2.73765L9.23945 1.06209C9.25117 1.0577 9.2632 1.05315 9.27552 1.0485C9.41013 0.997643 9.57967 0.933597 9.76186 0.907269ZM9.99771 2.55953C9.96367 2.57069 9.9175 2.58782 9.82466 2.62264L5.35649 4.2982C4.66879 4.55609 4.53645 4.61976 4.44924 4.69661C4.34771 4.78609 4.2695 4.89894 4.22137 5.02543C4.18003 5.13407 4.16689 5.28034 4.16689 6.0148V10.0001C4.16689 11.735 5.11663 13.3038 6.36848 14.608C7.61106 15.9025 9.05853 16.8377 9.83849 17.2927C9.88616 17.3205 9.92055 17.3406 9.95044 17.3574C9.97391 17.3706 9.98952 17.379 10.0002 17.3844C10.0109 17.379 10.0265 17.3706 10.05 17.3574C10.0799 17.3406 10.1143 17.3205 10.162 17.2927C10.9419 16.8377 12.3894 15.9025 13.632 14.608C14.8838 13.3038 15.8336 11.735 15.8336 10.0001V6.0148C15.8336 5.28034 15.8204 5.13407 15.7791 5.02543C15.7309 4.89894 15.6527 4.78609 15.5512 4.69661C15.464 4.61976 15.3316 4.55609 14.6439 4.2982L10.1758 2.62264C10.0829 2.58782 10.0368 2.57069 10.0027 2.55953C10.0019 2.55924 10.001 2.55897 10.0002 2.55871C9.99942 2.55897 9.99858 2.55924 9.99771 2.55953ZM14.0954 7.50014L9.75614 11.8394C9.43071 12.1648 8.90307 12.1648 8.57763 11.8394L6.32171 9.58347L7.50022 8.40496L9.16689 10.0716L12.9169 6.32162L14.0954 7.50014Z" fill="currentColor"/>
	</symbol>

	<!-- Secure Payment -->
	<symbol id="secure-payment" viewBox="0 0 20 20" fill="none"
		xmlns="http://www.w3.org/2000/svg">
		<path fill-rule="evenodd" clip-rule="evenodd" d="M4.30367 3.4165H15.696C16.1376 3.41649 16.5136 3.41648 16.8222 3.4417C17.1465 3.4682 17.462 3.52623 17.7637 3.67991C18.2184 3.9116 18.5881 4.2813 18.8198 4.73603C18.9734 5.03764 19.0315 5.35313 19.058 5.67744C19.0832 5.98613 19.0832 6.36211 19.0832 6.80367V9.99984C19.0832 10.4141 18.7474 10.7498 18.3332 10.7498C17.919 10.7498 17.5832 10.4141 17.5832 9.99984V9.08317H2.4165V13.1665C2.4165 13.6456 2.41709 13.9598 2.43672 14.2001C2.45564 14.4316 2.48844 14.5278 2.51642 14.5827C2.6043 14.7551 2.74453 14.8954 2.91701 14.9833C2.97192 15.0112 3.06804 15.044 3.29958 15.063C3.53988 15.0826 3.85409 15.0832 4.33317 15.0832H9.99984C10.4141 15.0832 10.7498 15.419 10.7498 15.8332C10.7498 16.2474 10.4141 16.5832 9.99984 16.5832H4.30367C3.86211 16.5832 3.48613 16.5832 3.17743 16.558C2.85313 16.5315 2.53764 16.4734 2.23603 16.3198C1.7813 16.0881 1.4116 15.7184 1.17991 15.2636C1.02623 14.962 0.968199 14.6465 0.941703 14.3222C0.916482 14.0135 0.916492 13.6376 0.916504 13.196V6.80367C0.916492 6.36211 0.916482 5.98613 0.941703 5.67743C0.968199 5.35313 1.02623 5.03764 1.17991 4.73603C1.4116 4.2813 1.7813 3.9116 2.23603 3.67991C2.53764 3.52623 2.85313 3.4682 3.17743 3.4417C3.48613 3.41648 3.86211 3.41649 4.30367 3.4165ZM2.4165 7.58317H17.5832V6.83317C17.5832 6.35409 17.5826 6.03988 17.563 5.79958C17.544 5.56804 17.5112 5.47192 17.4833 5.41701C17.3954 5.24453 17.2551 5.1043 17.0827 5.01642C17.0278 4.98844 16.9316 4.95564 16.7001 4.93672C16.4598 4.91709 16.1456 4.9165 15.6665 4.9165H4.33317C3.85409 4.9165 3.53988 4.91709 3.29958 4.93672C3.06804 4.95564 2.97192 4.98844 2.91701 5.01642C2.74453 5.1043 2.6043 5.24453 2.51642 5.41701C2.48844 5.47192 2.45564 5.56804 2.43672 5.79958C2.41709 6.03988 2.4165 6.35409 2.4165 6.83317V7.58317ZM18.8635 12.8028C19.1564 13.0957 19.1564 13.5706 18.8635 13.8635L15.5302 17.1968C15.2373 17.4897 14.7624 17.4897 14.4695 17.1968L12.8028 15.5302C12.5099 15.2373 12.5099 14.7624 12.8028 14.4695C13.0957 14.1766 13.5706 14.1766 13.8635 14.4695L14.9998 15.6058L17.8028 12.8028C18.0957 12.5099 18.5706 12.5099 18.8635 12.8028Z" fill="currentColor"/>
	</symbol>
</svg>
