<svg style="display:none"
	xmlns="http://www.w3.org/2000/svg"
	xmlns:xlink="http://www.w3.org/1999/xlink" version="1.1">
	<!-- Close -->
	<symbol id="close" viewBox="0 0 12 12" fill="none"
		xmlns="http://www.w3.org/2000/svg">
		<path fill-rule="evenodd" clip-rule="evenodd" d="M0.410765 0.410704C0.736202 0.0852667 1.26384 0.0852667 1.58928 0.410704L6.00002 4.82145L10.4108 0.410704C10.7362 0.0852673 11.2638 0.0852673 11.5893 0.410704C11.9147 0.736141 11.9147 1.26378 11.5893 1.58922L7.17853 5.99996L11.5893 10.4107C11.9147 10.7361 11.9147 11.2638 11.5893 11.5892C11.2638 11.9147 10.7362 11.9147 10.4108 11.5892L6.00002 7.17847L1.58928 11.5892C1.26384 11.9147 0.736202 11.9147 0.410765 11.5892C0.0853278 11.2638 0.0853278 10.7361 0.410765 10.4107L4.82151 5.99996L0.410765 1.58921C0.0853278 1.26378 0.0853278 0.736141 0.410765 0.410704Z" fill="currentColor"/>
	</symbol>

	<!-- Close Small -->
	<symbol id="close-small" viewBox="0 0 10 9" fill="none"
		xmlns="http://www.w3.org/2000/svg">
		<path d="M9 0.689941L1 8.30994M1 0.689941L9 8.30994" stroke="currentColor" stroke-width="1.27" stroke-linecap="round" stroke-linejoin="round"/>
	</symbol>

	<!-- Chevron Right -->
	<symbol id="chevron-right" viewBox="0 0 24 24" fill="none"
		xmlns="http://www.w3.org/2000/svg">
		<g id="icon/chevron-right">
			<path id="Icon (Stroke)" fill-rule="evenodd" clip-rule="evenodd" d="M9.00015 4.58594L15.7073 11.293C16.0978 11.6836 16.0978 12.3167 15.7073 12.7073L9.00015 19.4144L7.58594 18.0002L13.5859 12.0002L7.58594 6.00015L9.00015 4.58594Z" fill="currentColor"/>
		</g>
	</symbol>

	<!-- Chevron Up -->
	<symbol id="chevron-up" viewBox="0 0 12 8" fill="none"
		xmlns="http://www.w3.org/2000/svg">
		<path d="M11 6.5L6 1.5L1 6.5" stroke="currentColor" stroke-width="2" stroke-linecap="round" stroke-linejoin="round"/>
	</symbol>

	<!-- Globe Outline  -->
	<symbol id="globe-outline" viewBox="0 0 20 20" fill="none"
		xmlns="http://www.w3.org/2000/svg">
		<path d="M10 2.36206C7.99754 2.36206 6.1133 3.14531 4.69458 4.57142L4.66502 4.60837C3.26847 6.0197 2.5 7.88915 2.5 9.86206C2.5 14 5.86207 17.3621 10 17.3621C12.0099 17.3621 13.8941 16.5788 15.3128 15.1527C15.335 15.1305 15.3498 15.1158 15.3719 15.0862C16.7463 13.6749 17.5 11.8202 17.5 9.86206C17.5 5.72413 14.1379 2.36206 10 2.36206ZM13.569 9.38177H10.4803V6.27093C11.3227 6.24876 12.1355 6.16748 12.8892 6.02709C13.2882 7.00984 13.5172 8.16994 13.569 9.38915V9.38177ZM13.4434 4.9261C13.266 4.57881 13.0665 4.26846 12.8596 3.99507C13.2882 4.20196 13.6946 4.46058 14.064 4.75615C13.8793 4.81526 13.6724 4.87438 13.4434 4.9261ZM10.4803 5.31034V3.38177C11.2192 3.56649 11.9138 4.17979 12.4606 5.12561C11.8473 5.22906 11.1823 5.28817 10.4803 5.31034ZM13.8498 13.9187C14.2488 12.8621 14.4852 11.6355 14.5296 10.3424H16.5099C16.4064 11.7832 15.8153 13.1576 14.8473 14.2364C14.5296 14.1182 14.1897 14.0074 13.8424 13.9187H13.8498ZM10.4803 10.3497H13.569C13.5172 11.569 13.2882 12.7217 12.8892 13.7118C12.1281 13.5714 11.3227 13.4901 10.4803 13.468V10.3497ZM14.064 14.9828C13.6872 15.2783 13.2808 15.5369 12.8522 15.7438C13.0665 15.463 13.266 15.1453 13.4434 14.8054C13.665 14.8645 13.8719 14.9162 14.064 14.9828ZM10.4803 16.3497V14.4286C11.1749 14.4507 11.8399 14.5098 12.4606 14.6059C11.9064 15.5591 11.2118 16.165 10.4803 16.3497ZM14.5296 9.38915C14.4778 8.09605 14.2488 6.86206 13.8498 5.8128C14.197 5.71674 14.5369 5.61329 14.8547 5.49507C15.8227 6.57388 16.4138 7.94827 16.5172 9.38915H14.5296ZM6.15025 13.9261C5.78079 14.0222 5.44828 14.1256 5.14532 14.2438C4.17734 13.165 3.58621 11.7906 3.48276 10.3497H5.47044C5.51478 11.6428 5.75123 12.8768 6.15025 13.9261ZM3.48276 9.38915C3.58621 7.94827 4.17734 6.57388 5.14532 5.49507C5.44828 5.61329 5.78079 5.71674 6.15025 5.8128C5.75123 6.86206 5.51478 8.09605 5.47044 9.38915H3.48276ZM6.43103 10.3497H9.5197V13.4606C8.67734 13.4828 7.86453 13.564 7.11084 13.7044C6.71182 12.7217 6.48276 11.5616 6.43103 10.3424V10.3497ZM6.55665 14.8054C6.73399 15.1453 6.9335 15.463 7.14039 15.7364C6.71182 15.5295 6.30542 15.2709 5.93596 14.9754C6.12069 14.9162 6.32759 14.8571 6.55665 14.8054ZM9.5197 14.4212V16.3497C8.78079 16.165 8.08621 15.5517 7.53941 14.6059C8.15271 14.5025 8.81773 14.4433 9.5197 14.4212ZM9.5197 9.38177H6.43103C6.48276 8.16994 6.71182 7.00984 7.11084 6.0197C7.86453 6.16009 8.67734 6.24137 9.5197 6.26354V9.38177ZM5.93596 4.75615C6.31281 4.46058 6.71182 4.20196 7.14778 3.99507C6.9335 4.27585 6.74138 4.5862 6.55665 4.93349C6.33498 4.87438 6.12808 4.82265 5.93596 4.76354V4.75615ZM9.5197 3.38915V5.31034C8.82512 5.28817 8.1601 5.22906 7.53941 5.133C8.08621 4.18718 8.78079 3.57388 9.5197 3.38915Z" fill="currentColor"/>
	</symbol>

	<!-- Globe -->
	<symbol id="globe" viewBox="0 0 24 24" fill="none"
		xmlns="http://www.w3.org/2000/svg">
		<g id="icon/globe-02">
			<path id="Icon (Stroke)" fill-rule="evenodd" clip-rule="evenodd" d="M3.14348 9.89998C2.98424 10.5741 2.89998 11.2772 2.89998 12C2.89998 12.7228 2.98424 13.4258 3.14348 14.1H7.27819C7.17463 13.4141 7.11476 12.719 7.10017 12.0187C7.09991 12.0062 7.09991 11.9937 7.10017 11.9812C7.11476 11.281 7.17463 10.5859 7.27819 9.89998H3.14348ZM1.59999 8.72675C1.27513 9.75996 1.09998 10.8595 1.09998 12C1.09998 13.1404 1.27512 14.2399 1.59998 15.2731V15.9H1.81842C3.38744 19.9936 7.3543 22.9 12 22.9C16.6457 22.9 20.6125 19.9936 22.1815 15.9H22.4V15.2731C22.7248 14.2399 22.9 13.1404 22.9 12C22.9 10.8596 22.7248 9.76005 22.4 8.72687V8.09998H22.1815C20.6125 4.00632 16.6456 1.09998 12 1.09998C7.3543 1.09998 3.38744 4.00632 1.81842 8.09998H1.59999V8.72675ZM3.7757 8.09998H7.65557C8.13321 6.32922 8.90928 4.64804 9.954 3.13089C7.21813 3.75945 4.95316 5.62135 3.7757 8.09998ZM12 3.38861C10.8854 4.79845 10.0501 6.39771 9.52846 8.09998H14.4715C13.9499 6.39771 13.1145 4.79845 12 3.38861ZM14.8988 9.89998H9.1012C8.98355 10.5905 8.91585 11.2922 8.90018 12C8.91585 12.7077 8.98355 13.4095 9.1012 14.1H14.8988C15.0164 13.4095 15.0841 12.7077 15.0998 12C15.0841 11.2922 15.0164 10.5905 14.8988 9.89998ZM16.7218 14.1C16.8253 13.4141 16.8852 12.719 16.8998 12.0187C16.9 12.0062 16.9 11.9937 16.8998 11.9812C16.8852 11.281 16.8253 10.5859 16.7218 9.89998H20.8565C21.0157 10.5741 21.1 11.2772 21.1 12C21.1 12.7228 21.0157 13.4258 20.8565 14.1H16.7218ZM14.4715 15.9H9.52846C10.0501 17.6022 10.8854 19.2015 12 20.6113C13.1145 19.2015 13.9499 17.6022 14.4715 15.9ZM9.954 20.8691C8.90928 19.3519 8.13321 17.6707 7.65557 15.9H3.7757C4.95316 18.3786 7.21813 20.2405 9.954 20.8691ZM14.046 20.8691C15.0907 19.3519 15.8667 17.6707 16.3444 15.9H20.2243C19.0468 18.3786 16.7818 20.2405 14.046 20.8691ZM20.2243 8.09998H16.3444C15.8667 6.32922 15.0907 4.64804 14.0459 3.13089C16.7818 3.75945 19.0468 5.62135 20.2243 8.09998Z" fill="currentColor"/>
		</g>
	</symbol>

	<!-- Seller Search -->
	<symbol id="seller-search" viewBox="0 0 24 24" fill="none"
		xmlns="http://www.w3.org/2000/svg">
		<path fill-rule="evenodd" clip-rule="evenodd" d="M11 4C7.13401 4 4 7.13401 4 11C4 14.866 7.13401 18 11 18C12.8001 18 14.4415 17.3205 15.6817 16.2041L16.2041 15.6817C17.3205 14.4415 18 12.8001 18 11C18 7.13401 14.866 4 11 4ZM18.0319 16.6177C19.2635 15.078 20 13.125 20 11C20 6.02944 15.9706 2 11 2C6.02944 2 2 6.02944 2 11C2 15.9706 6.02944 20 11 20C13.125 20 15.078 19.2635 16.6177 18.0319L21 22.4142L22.4142 21L18.0319 16.6177Z" fill="currentColor"/>
	</symbol>

	<!-- Menu -->
	<symbol id="menu" viewBox="0 0 18 12" fill="none"
		xmlns="http://www.w3.org/2000/svg">
		<path fill-rule="evenodd" clip-rule="evenodd" d="M0 0.75C0 0.335786 0.335786 0 0.75 0H17.25C17.6642 0 18 0.335786 18 0.75C18 1.16421 17.6642 1.5 17.25 1.5H0.75C0.335786 1.5 0 1.16421 0 0.75ZM0 6C0 5.58579 0.335786 5.25 0.75 5.25H17.25C17.6642 5.25 18 5.58579 18 6C18 6.41421 17.6642 6.75 17.25 6.75H0.75C0.335786 6.75 0 6.41421 0 6ZM0 11.25C0 10.8358 0.335786 10.5 0.75 10.5H17.25C17.6642 10.5 18 10.8358 18 11.25C18 11.6642 17.6642 12 17.25 12H0.75C0.335786 12 0 11.6642 0 11.25Z" fill="currentColor"/>
	</symbol>

	<!-- Profile Icon -->
	<symbol id="profile-icon" viewBox="0 0 24 24" fill="none"
		xmlns="http://www.w3.org/2000/svg">
		<g id="icon/user-circle">
			<path id="Icon (Stroke)" fill-rule="evenodd" clip-rule="evenodd" d="M12 2.89998C6.97418 2.89998 2.89998 6.97418 2.89998 12C2.89998 14.2893 3.74533 16.3811 5.1409 17.9804C6.0373 16.8363 7.43203 16.1 8.99998 16.1H15C16.5679 16.1 17.9627 16.8363 18.859 17.9804C20.2546 16.3811 21.1 14.2893 21.1 12C21.1 6.97418 17.0258 2.89998 12 2.89998ZM19.7552 19.6594C21.6996 17.6908 22.9 14.9856 22.9 12C22.9 5.98007 18.0199 1.09998 12 1.09998C5.98007 1.09998 1.09998 5.98007 1.09998 12C1.09998 14.9856 2.30032 17.6908 4.24475 19.6594L4.13617 19.9152L4.82929 20.2094C6.74585 21.8848 9.25436 22.9 12 22.9C14.7456 22.9 17.2541 21.8848 19.1707 20.2094L19.8638 19.9152L19.7552 19.6594ZM17.539 19.2206C16.9776 18.4211 16.049 17.9 15 17.9H8.99998C7.95098 17.9 7.02233 18.4211 6.46095 19.2206C7.99516 20.3993 9.91574 21.1 12 21.1C14.0842 21.1 16.0048 20.3993 17.539 19.2206ZM12 6.39998C10.2879 6.39998 8.89998 7.78789 8.89998 9.49998C8.89998 11.2121 10.2879 12.6 12 12.6C13.7121 12.6 15.1 11.2121 15.1 9.49998C15.1 7.78789 13.7121 6.39998 12 6.39998ZM7.09998 9.49998C7.09998 6.79378 9.29378 4.59998 12 4.59998C14.7062 4.59998 16.9 6.79378 16.9 9.49998C16.9 12.2062 14.7062 14.4 12 14.4C9.29378 14.4 7.09998 12.2062 7.09998 9.49998Z" fill="currentColor"/>
		</g>
	</symbol>

	<!-- Right Arrow Small -->
	<symbol id="right-arrow-small" viewBox="0 0 13 12" fill="none"
		xmlns="http://www.w3.org/2000/svg">
		<path fill-rule="evenodd" clip-rule="evenodd" d="M7.66669 0.484863L12.7576 5.57579C12.9919 5.81011 12.9919 6.19001 12.7576 6.42432L7.66669 11.5153L6.81816 10.6667L10.8848 6.60006H0.400024V5.40006H10.8848L6.81816 1.33339L7.66669 0.484863Z" fill="currentColor"/>
	</symbol>

	<!-- Arrow Up -->
	<symbol id="arrow-up" viewBox="0 0 24 24" fill="none"
		xmlns="http://www.w3.org/2000/svg">
		<g id="icon/arrow-up">
			<path id="Icon (Stroke)" fill-rule="evenodd" clip-rule="evenodd" d="M12.6366 4.3637C12.2851 4.01223 11.7152 4.01223 11.3638 4.3637L3.72737 12.0001L5.00016 13.2729L11.1002 7.17289L11.1002 19.9001H12.9002L12.9002 7.17289L19.0002 13.2729L20.2729 12.0001L12.6366 4.3637Z" fill="currentColor"/>
		</g>
	</symbol>

	<!-- Search MD -->
	<symbol id="search-md" viewBox="0 0 16 16" fill="none"
		xmlns="http://www.w3.org/2000/svg">
		<path fill-rule="evenodd" clip-rule="evenodd" d="M7.33325 2.66659C4.75592 2.66659 2.66659 4.75592 2.66659 7.33325C2.66659 9.91058 4.75592 11.9999 7.33325 11.9999C8.53331 11.9999 9.62757 11.5469 10.4544 10.8027L10.8027 10.4544C11.5469 9.62757 11.9999 8.53331 11.9999 7.33325C11.9999 4.75592 9.91058 2.66659 7.33325 2.66659ZM12.0212 11.0784C12.8423 10.0519 13.3333 8.74993 13.3333 7.33325C13.3333 4.01954 10.647 1.33325 7.33325 1.33325C4.01954 1.33325 1.33325 4.01954 1.33325 7.33325C1.33325 10.647 4.01954 13.3333 7.33325 13.3333C8.74993 13.3333 10.0519 12.8423 11.0784 12.0212L13.9999 14.9427L14.9427 13.9999L12.0212 11.0784Z" fill="currentColor"/>
	</symbol>

	<!-- Shopping Cart -->
	<symbol id="shopping-cart" viewBox="0 0 32 32" fill="none"
		xmlns="http://www.w3.org/2000/svg">
		<g id="icon/shopping-cart">
			<path id="Icon (Stroke)" fill-rule="evenodd" clip-rule="evenodd" d="M2.66683 5.33331H8.27946L9.67951 9.33331H30.9014L25.7586 21.3333H11.0544L6.38753 7.99998H1.3335L2.66683 5.33331ZM10.6129 12L12.9463 18.6666H24.0002L26.8573 12H10.6129ZM12.1551 24H25.3335L24.0002 26.6666H13.4884L12.1551 24Z" fill="currentColor"/>
		</g>
	</symbol>

	<!-- Trend Up -->
	<symbol id="trend-up" viewBox="0 0 16 17" fill="none"
		xmlns="http://www.w3.org/2000/svg">
		<path d="M14.6666 5.32495L9.42083 10.3215C9.15682 10.573 9.02482 10.6987 8.8726 10.7458C8.7387 10.7873 8.59447 10.7873 8.46057 10.7458C8.30836 10.6987 8.17635 10.573 7.91234 10.3215L6.0875 8.58337C5.82349 8.3319 5.69148 8.20617 5.53926 8.15906C5.40537 8.11762 5.26114 8.11762 5.12724 8.15906C4.97502 8.20617 4.84302 8.3319 4.579 8.58337L1.33325 11.675M14.6666 5.32495H9.99992M14.6666 5.32495V9.76995" stroke="currentColor" stroke-width="1.33333" stroke-linecap="round" stroke-linejoin="round"/>
	</symbol>
</svg>
